<svg xmlns="http://www.w3.org/2000/svg" xmlns:svg="http://www.w3.org/2000/svg" id="svg2" width="77" height="77" version="1.1"><metadata id="metadata7"/><g id="layer1" transform="translate(-239.04997,-386.57895)"><g id="g3846" transform="translate(-0.35714286,4.2857143)"><text id="text3794" x="249.109" y="434.422" fill="#646464" fill-opacity="1" stroke="none" font-family="Sans" font-size="40" font-style="normal" font-weight="bold" letter-spacing="0" word-spacing="0" xml:space="preserve" style="line-height:125%;-inkscape-font-specification:Sans Bold"><tspan id="tspan3796" x="249.109" y="434.422">Y</tspan></text><path id="rect3779-7" fill="#646464" fill-opacity="1" stroke="#ea712d" stroke-linejoin="miter" stroke-miterlimit="4" stroke-opacity="1" stroke-width="0" d="m 284.625,401.375 c -3.4277,0 -6.1875,2.7598 -6.1875,6.1875 l 0,25.0625 c 0,3.4277 2.7598,6.1875 6.1875,6.1875 l 16.5,0 c 3.4277,0 6.1875,-2.7598 6.1875,-6.1875 l 0,-25.0625 c 0,-3.4277 -2.7598,-6.1875 -6.1875,-6.1875 l -16.5,0 z m -3,4.40625 22.75,0 0,4.84375 -8.46875,0 0,23.78125 -5.78125,0 0,-23.78125 -8.5,0 0,-4.84375 z"/></g></g></svg>