<svg xmlns="http://www.w3.org/2000/svg" xmlns:svg="http://www.w3.org/2000/svg" width="100" height="100" version="1.1"><metadata id="metadata7"/><g><g transform="translate(50, 50)"><animateTransform additive="sum" attributeName="transform" attributeType="XML" calcMode="discrete" dur="1.2s" repeatCount="indefinite" type="rotate" values="0; 30; 60; 90; 120; 150; 180; 210; 240; 270; 300; 330"/><rect width="6" height="26" x="-3" y="-45" stroke="none" opacity="1" rx="3" ry="3" transform="rotate(0)"/><rect width="6" height="26" x="-3" y="-45" stroke="none" opacity=".917" rx="3" ry="3" transform="rotate(330)"/><rect width="6" height="26" x="-3" y="-45" stroke="none" opacity=".833" rx="3" ry="3" transform="rotate(300)"/><rect width="6" height="26" x="-3" y="-45" stroke="none" opacity=".75" rx="3" ry="3" transform="rotate(270)"/><rect width="6" height="26" x="-3" y="-45" stroke="none" opacity=".667" rx="3" ry="3" transform="rotate(240)"/><rect width="6" height="26" x="-3" y="-45" stroke="none" opacity=".583" rx="3" ry="3" transform="rotate(210)"/><rect width="6" height="26" x="-3" y="-45" stroke="none" opacity=".5" rx="3" ry="3" transform="rotate(180)"/><rect width="6" height="26" x="-3" y="-45" stroke="none" opacity=".417" rx="3" ry="3" transform="rotate(150)"/><rect width="6" height="26" x="-3" y="-45" stroke="none" opacity=".333" rx="3" ry="3" transform="rotate(120)"/><rect width="6" height="26" x="-3" y="-45" stroke="none" opacity=".25" rx="3" ry="3" transform="rotate(90)"/><rect width="6" height="26" x="-3" y="-45" stroke="none" opacity=".167" rx="3" ry="3" transform="rotate(60)"/><rect width="6" height="26" x="-3" y="-45" stroke="none" opacity=".083" rx="3" ry="3" transform="rotate(30)"/></g></g></svg>